<svg width="1505" height="41" viewBox="0 0 1505 41" fill="none" xmlns="http://www.w3.org/2000/svg">
<g clip-path="url(#clip0_551_8530)">
<path d="M287.367 1.49805C287.367 21.2268 271.338 37.2253 251.572 37.2253C231.806 37.2253 215.777 21.2268 215.777 1.49805" fill="#E3AE67"/>
<path d="M287.367 1.49805C287.367 21.2268 271.338 37.2253 251.572 37.2253C231.806 37.2253 215.777 21.2268 215.777 1.49805" stroke="#E3AE67" stroke-width="6.20075" stroke-miterlimit="10"/>
<path d="M358.957 1.49805C358.957 21.2268 342.928 37.2253 323.162 37.2253C303.396 37.2253 287.367 21.2268 287.367 1.49805" fill="#E3AE67"/>
<path d="M358.957 1.49805C358.957 21.2268 342.928 37.2253 323.162 37.2253C303.396 37.2253 287.367 21.2268 287.367 1.49805" stroke="#E3AE67" stroke-width="6.20075" stroke-miterlimit="10"/>
<path d="M430.547 1.49805C430.547 21.2268 414.518 37.2253 394.752 37.2253C374.986 37.2253 358.957 21.2268 358.957 1.49805" fill="#E3AE67"/>
<path d="M430.547 1.49805C430.547 21.2268 414.518 37.2253 394.752 37.2253C374.986 37.2253 358.957 21.2268 358.957 1.49805" stroke="#E3AE67" stroke-width="6.20075" stroke-miterlimit="10"/>
<path d="M502.137 1.49805C502.137 21.2268 486.108 37.2253 466.342 37.2253C446.576 37.2253 430.547 21.2268 430.547 1.49805" fill="#E3AE67"/>
<path d="M502.137 1.49805C502.137 21.2268 486.108 37.2253 466.342 37.2253C446.576 37.2253 430.547 21.2268 430.547 1.49805" stroke="#E3AE67" stroke-width="6.20075" stroke-miterlimit="10"/>
<path d="M573.727 1.49805C573.727 21.2268 557.698 37.2253 537.932 37.2253C518.166 37.2253 502.137 21.2268 502.137 1.49805" fill="#E3AE67"/>
<path d="M573.727 1.49805C573.727 21.2268 557.698 37.2253 537.932 37.2253C518.166 37.2253 502.137 21.2268 502.137 1.49805" stroke="#E3AE67" stroke-width="6.20075" stroke-miterlimit="10"/>
<path d="M645.317 1.49805C645.317 21.2268 629.288 37.2253 609.522 37.2253C589.756 37.2253 573.727 21.2268 573.727 1.49805" fill="#E3AE67"/>
<path d="M645.317 1.49805C645.317 21.2268 629.288 37.2253 609.522 37.2253C589.756 37.2253 573.727 21.2268 573.727 1.49805" stroke="#E3AE67" stroke-width="6.20075" stroke-miterlimit="10"/>
<path d="M716.907 1.49805C716.907 21.2268 700.878 37.2253 681.112 37.2253C661.346 37.2253 645.317 21.2268 645.317 1.49805" fill="#E3AE67"/>
<path d="M716.907 1.49805C716.907 21.2268 700.878 37.2253 681.112 37.2253C661.346 37.2253 645.317 21.2268 645.317 1.49805" stroke="#E3AE67" stroke-width="6.20075" stroke-miterlimit="10"/>
<path d="M788.497 1.49805C788.497 21.2268 772.468 37.2253 752.702 37.2253C732.936 37.2253 716.907 21.2268 716.907 1.49805" fill="#E3AE67"/>
<path d="M788.497 1.49805C788.497 21.2268 772.468 37.2253 752.702 37.2253C732.936 37.2253 716.907 21.2268 716.907 1.49805" stroke="#E3AE67" stroke-width="6.20075" stroke-miterlimit="10"/>
<path d="M860.087 1.49805C860.087 21.2268 844.058 37.2253 824.292 37.2253C804.526 37.2253 788.497 21.2268 788.497 1.49805" fill="#E3AE67"/>
<path d="M860.087 1.49805C860.087 21.2268 844.058 37.2253 824.292 37.2253C804.526 37.2253 788.497 21.2268 788.497 1.49805" stroke="#E3AE67" stroke-width="6.20075" stroke-miterlimit="10"/>
<path d="M931.677 1.49805C931.677 21.2267 915.649 37.2253 895.882 37.2253C876.116 37.2253 860.087 21.2267 860.087 1.49805" fill="#E3AE67"/>
<path d="M931.677 1.49805C931.677 21.2267 915.649 37.2253 895.882 37.2253C876.116 37.2253 860.087 21.2267 860.087 1.49805" stroke="#E3AE67" stroke-width="6.20075" stroke-miterlimit="10"/>
<path d="M1003.27 1.49805C1003.27 21.2268 987.238 37.2253 967.472 37.2253C947.706 37.2253 931.677 21.2268 931.677 1.49805" fill="#E3AE67"/>
<path d="M1003.27 1.49805C1003.27 21.2268 987.238 37.2253 967.472 37.2253C947.706 37.2253 931.677 21.2268 931.677 1.49805" stroke="#E3AE67" stroke-width="6.20075" stroke-miterlimit="10"/>
<path d="M1074.86 1.49805C1074.86 21.2268 1058.83 37.2253 1039.06 37.2253C1019.3 37.2253 1003.27 21.2268 1003.27 1.49805" fill="#E3AE67"/>
<path d="M1074.86 1.49805C1074.86 21.2268 1058.83 37.2253 1039.06 37.2253C1019.3 37.2253 1003.27 21.2268 1003.27 1.49805" stroke="#E3AE67" stroke-width="6.20075" stroke-miterlimit="10"/>
<path d="M1146.45 1.49805C1146.45 21.2268 1130.42 37.2253 1110.65 37.2253C1090.89 37.2253 1074.86 21.2268 1074.86 1.49805" fill="#E3AE67"/>
<path d="M1146.45 1.49805C1146.45 21.2268 1130.42 37.2253 1110.65 37.2253C1090.89 37.2253 1074.86 21.2268 1074.86 1.49805" stroke="#E3AE67" stroke-width="6.20075" stroke-miterlimit="10"/>
<path d="M1218.04 1.49805C1218.04 21.2268 1202.01 37.2253 1182.24 37.2253C1162.48 37.2253 1146.45 21.2268 1146.45 1.49805" fill="#E3AE67"/>
<path d="M1218.04 1.49805C1218.04 21.2268 1202.01 37.2253 1182.24 37.2253C1162.48 37.2253 1146.45 21.2268 1146.45 1.49805" stroke="#E3AE67" stroke-width="6.20075" stroke-miterlimit="10"/>
<path d="M1289.63 1.49805C1289.63 21.2268 1273.6 37.2253 1253.83 37.2253C1234.07 37.2253 1218.04 21.2268 1218.04 1.49805" fill="#E3AE67"/>
<path d="M1289.63 1.49805C1289.63 21.2268 1273.6 37.2253 1253.83 37.2253C1234.07 37.2253 1218.04 21.2268 1218.04 1.49805" stroke="#E3AE67" stroke-width="6.20075" stroke-miterlimit="10"/>
<path d="M1361.22 1.49805C1361.22 21.2268 1345.19 37.2253 1325.42 37.2253C1305.66 37.2253 1289.63 21.2268 1289.63 1.49805" fill="#E3AE67"/>
<path d="M1361.22 1.49805C1361.22 21.2268 1345.19 37.2253 1325.42 37.2253C1305.66 37.2253 1289.63 21.2268 1289.63 1.49805" stroke="#E3AE67" stroke-width="6.20075" stroke-miterlimit="10"/>
</g>
<g clip-path="url(#clip1_551_8530)">
<path d="M287.367 -2.33691C287.367 17.3918 271.338 33.3903 251.572 33.3903C231.806 33.3903 215.777 17.3918 215.777 -2.33691" fill="#0A125A"/>
<path d="M287.367 -2.33691C287.367 17.3918 271.338 33.3903 251.572 33.3903C231.806 33.3903 215.777 17.3918 215.777 -2.33691" stroke="#0A125A" stroke-width="6.20075" stroke-miterlimit="10"/>
<path d="M358.957 -2.33691C358.957 17.3918 342.928 33.3903 323.162 33.3903C303.396 33.3903 287.367 17.3918 287.367 -2.33691" fill="#0A125A"/>
<path d="M358.957 -2.33691C358.957 17.3918 342.928 33.3903 323.162 33.3903C303.396 33.3903 287.367 17.3918 287.367 -2.33691" stroke="#0A125A" stroke-width="6.20075" stroke-miterlimit="10"/>
<path d="M430.547 -2.33691C430.547 17.3918 414.518 33.3903 394.752 33.3903C374.986 33.3903 358.957 17.3918 358.957 -2.33691" fill="#0A125A"/>
<path d="M430.547 -2.33691C430.547 17.3918 414.518 33.3903 394.752 33.3903C374.986 33.3903 358.957 17.3918 358.957 -2.33691" stroke="#0A125A" stroke-width="6.20075" stroke-miterlimit="10"/>
<path d="M502.137 -2.33691C502.137 17.3918 486.108 33.3903 466.342 33.3903C446.576 33.3903 430.547 17.3918 430.547 -2.33691" fill="#0A125A"/>
<path d="M502.137 -2.33691C502.137 17.3918 486.108 33.3903 466.342 33.3903C446.576 33.3903 430.547 17.3918 430.547 -2.33691" stroke="#0A125A" stroke-width="6.20075" stroke-miterlimit="10"/>
<path d="M573.727 -2.33691C573.727 17.3918 557.698 33.3903 537.932 33.3903C518.165 33.3903 502.137 17.3918 502.137 -2.33691" fill="#0A125A"/>
<path d="M573.727 -2.33691C573.727 17.3918 557.698 33.3903 537.932 33.3903C518.165 33.3903 502.137 17.3918 502.137 -2.33691" stroke="#0A125A" stroke-width="6.20075" stroke-miterlimit="10"/>
<path d="M645.317 -2.33691C645.317 17.3918 629.288 33.3903 609.522 33.3903C589.756 33.3903 573.727 17.3918 573.727 -2.33691" fill="#0A125A"/>
<path d="M645.317 -2.33691C645.317 17.3918 629.288 33.3903 609.522 33.3903C589.756 33.3903 573.727 17.3918 573.727 -2.33691" stroke="#0A125A" stroke-width="6.20075" stroke-miterlimit="10"/>
<path d="M716.907 -2.33691C716.907 17.3918 700.878 33.3903 681.112 33.3903C661.346 33.3903 645.317 17.3918 645.317 -2.33691" fill="#0A125A"/>
<path d="M716.907 -2.33691C716.907 17.3918 700.878 33.3903 681.112 33.3903C661.346 33.3903 645.317 17.3918 645.317 -2.33691" stroke="#0A125A" stroke-width="6.20075" stroke-miterlimit="10"/>
<path d="M788.497 -2.33691C788.497 17.3918 772.468 33.3903 752.702 33.3903C732.936 33.3903 716.907 17.3918 716.907 -2.33691" fill="#0A125A"/>
<path d="M788.497 -2.33691C788.497 17.3918 772.468 33.3903 752.702 33.3903C732.936 33.3903 716.907 17.3918 716.907 -2.33691" stroke="#0A125A" stroke-width="6.20075" stroke-miterlimit="10"/>
<path d="M860.087 -2.33691C860.087 17.3918 844.058 33.3903 824.292 33.3903C804.526 33.3903 788.497 17.3918 788.497 -2.33691" fill="#0A125A"/>
<path d="M860.087 -2.33691C860.087 17.3918 844.058 33.3903 824.292 33.3903C804.526 33.3903 788.497 17.3918 788.497 -2.33691" stroke="#0A125A" stroke-width="6.20075" stroke-miterlimit="10"/>
<path d="M931.677 -2.33691C931.677 17.3918 915.648 33.3903 895.882 33.3903C876.116 33.3903 860.087 17.3918 860.087 -2.33691" fill="#0A125A"/>
<path d="M931.677 -2.33691C931.677 17.3918 915.648 33.3903 895.882 33.3903C876.116 33.3903 860.087 17.3918 860.087 -2.33691" stroke="#0A125A" stroke-width="6.20075" stroke-miterlimit="10"/>
<path d="M1003.27 -2.33691C1003.27 17.3918 987.238 33.3903 967.472 33.3903C947.706 33.3903 931.677 17.3918 931.677 -2.33691" fill="#0A125A"/>
<path d="M1003.27 -2.33691C1003.27 17.3918 987.238 33.3903 967.472 33.3903C947.706 33.3903 931.677 17.3918 931.677 -2.33691" stroke="#0A125A" stroke-width="6.20075" stroke-miterlimit="10"/>
<path d="M1074.86 -2.33691C1074.86 17.3918 1058.83 33.3903 1039.06 33.3903C1019.3 33.3903 1003.27 17.3918 1003.27 -2.33691" fill="#0A125A"/>
<path d="M1074.86 -2.33691C1074.86 17.3918 1058.83 33.3903 1039.06 33.3903C1019.3 33.3903 1003.27 17.3918 1003.27 -2.33691" stroke="#0A125A" stroke-width="6.20075" stroke-miterlimit="10"/>
<path d="M1146.45 -2.33691C1146.45 17.3918 1130.42 33.3903 1110.65 33.3903C1090.89 33.3903 1074.86 17.3918 1074.86 -2.33691" fill="#0A125A"/>
<path d="M1146.45 -2.33691C1146.45 17.3918 1130.42 33.3903 1110.65 33.3903C1090.89 33.3903 1074.86 17.3918 1074.86 -2.33691" stroke="#0A125A" stroke-width="6.20075" stroke-miterlimit="10"/>
<path d="M1218.04 -2.33691C1218.04 17.3918 1202.01 33.3903 1182.24 33.3903C1162.48 33.3903 1146.45 17.3918 1146.45 -2.33691" fill="#0A125A"/>
<path d="M1218.04 -2.33691C1218.04 17.3918 1202.01 33.3903 1182.24 33.3903C1162.48 33.3903 1146.45 17.3918 1146.45 -2.33691" stroke="#0A125A" stroke-width="6.20075" stroke-miterlimit="10"/>
<path d="M1289.63 -2.33691C1289.63 17.3918 1273.6 33.3903 1253.83 33.3903C1234.07 33.3903 1218.04 17.3918 1218.04 -2.33691" fill="#0A125A"/>
<path d="M1289.63 -2.33691C1289.63 17.3918 1273.6 33.3903 1253.83 33.3903C1234.07 33.3903 1218.04 17.3918 1218.04 -2.33691" stroke="#0A125A" stroke-width="6.20075" stroke-miterlimit="10"/>
<path d="M1361.22 -2.33691C1361.22 17.3918 1345.19 33.3903 1325.42 33.3903C1305.66 33.3903 1289.63 17.3918 1289.63 -2.33691" fill="#0A125A"/>
<path d="M1361.22 -2.33691C1361.22 17.3918 1345.19 33.3903 1325.42 33.3903C1305.66 33.3903 1289.63 17.3918 1289.63 -2.33691" stroke="#0A125A" stroke-width="6.20075" stroke-miterlimit="10"/>
</g>
<defs>
<clipPath id="clip0_551_8530">
<rect width="1504.6" height="36.3328" fill="white" transform="translate(0.399719 4.48926)"/>
</clipPath>
<clipPath id="clip1_551_8530">
<rect width="1504.6" height="36.3328" fill="white" transform="translate(0.399658 0.654297)"/>
</clipPath>
</defs>
</svg>
