<svg width="57" height="58" viewBox="0 0 57 58" fill="none" xmlns="http://www.w3.org/2000/svg">
<path d="M27.8529 17.3823C31.0841 18.5245 33.8934 20.6841 36.0891 23.2897C35.8769 24.3691 35.986 25.4519 35.931 26.5373C35.9259 26.6344 35.9869 26.7727 35.8459 26.7504C33.7259 23.0387 30.1534 20.2999 26.0886 19.0186C25.9279 19.0212 24.7626 20.1848 24.5417 20.3945C24.4859 20.4477 24.1421 20.5285 24.3827 20.6497C28.4115 21.6405 31.9504 24.2238 34.1091 27.7559C34.3223 28.1039 35.277 29.8072 35.3166 30.0805C35.3355 30.2102 35.3045 30.2257 35.2487 30.3202C35.1928 30.4148 33.835 31.776 33.7379 31.8207C32.3792 28.1409 29.594 24.8787 25.8978 23.4195C19.9114 21.0562 13.2607 22.9227 9.59977 28.2216C4.37649 35.7816 8.10188 46.3708 16.938 48.7521L15.4195 50.4614C15.2149 50.5284 14.4621 50.1632 14.2163 50.0558C1.9986 44.7036 2.13868 26.8681 14.3023 21.5804C15.1883 21.1954 16.1319 20.9788 17.0222 20.6067L15.2639 18.9602C8.93806 21.0562 3.85915 27.095 3.11407 33.7672C2.19368 42.012 7.08696 49.4473 14.6666 52.4457L14.6615 54.6801C4.95485 51.2984 -1.19398 41.1518 1.49415 30.9433C3.10548 24.8245 7.72462 19.737 13.4996 17.2552L4.85946 9.13922C4.46071 8.57891 5.11469 7.86734 5.43868 7.38867C6.04712 6.48891 6.79563 5.55734 7.45134 4.67477C8.51095 3.24992 9.60149 1.84656 10.7238 0.470703L30.7997 0.472422L36.5206 8.15781C36.9459 8.98109 36.0806 9.63508 35.546 10.1679C33.2077 12.4994 30.5462 14.7423 28.109 16.9965C28.0402 17.0601 27.7756 17.2818 27.8529 17.3832V17.3823ZM18.056 2.68789H13.1576L15.0061 6.55594L18.056 2.68789ZM28.1966 2.68789H23.3841L26.3499 6.72781L28.1966 2.68789ZM17.1107 7.58633H24.2435L20.6763 3.03078L17.1107 7.58633ZM28.4545 7.58633H33.3529L30.303 3.46047L28.4545 7.58633ZM12.9857 7.58633L11.0521 3.63492L8.17321 7.58633H12.9857ZM14.017 9.90664H8.94665L17.9263 18.1575L14.017 9.90664ZM24.7591 9.90664H16.5951L20.7622 18.5013L24.7591 9.90664ZM32.4076 9.90664H27.3373L23.5999 18.0716L32.4076 9.90664Z" fill="#E3AE67"/>
<path d="M30.1173 49.3825C29.0887 50.4241 28.1098 51.5361 27.082 52.5777C25.7466 53.9312 23.2183 56.8376 21.5528 57.4469C18.5622 58.5417 15.6137 55.6052 16.2728 52.5966C16.6002 51.1047 19.321 48.5162 20.4597 47.3303C24.5967 43.0231 28.9348 38.8955 33.0925 34.6116C34.2303 33.4394 36.7646 31.3133 37.3516 29.9331C37.7735 28.9405 37.3885 26.3427 37.4736 25.0708C37.789 20.3691 42.8636 16.0757 47.5652 16.6188C48.1857 16.6902 49.1929 17.027 48.6876 17.8091C47.8995 18.7062 47.0616 19.5708 46.2848 20.4757C45.5861 21.2887 43.8501 23.0607 43.7522 24.0447C43.6817 24.7451 43.7891 25.332 44.2214 25.8932C44.6786 26.487 46.2375 27.9815 46.8519 28.4189C49.9586 30.6275 52.767 25.2702 54.8794 23.6571C56.2509 22.6989 56.2552 25.8244 56.2105 26.5352C55.9536 30.6369 53.2001 34.236 49.2505 35.3876C47.304 35.9548 44.5428 35.2217 43.0707 36.3406C41.639 37.4286 39.9684 39.5117 38.6398 40.8472C35.8073 43.6934 32.9404 46.5234 30.1165 49.3825H30.1173ZM22.218 53.5109C22.218 52.4995 21.3973 51.6787 20.3858 51.6787C19.3743 51.6787 18.5536 52.4995 18.5536 53.5109C18.5536 54.5224 19.3743 55.3431 20.3858 55.3431C21.3973 55.3431 22.218 54.5224 22.218 53.5109Z" fill="#E3AE67"/>
<path d="M28.7123 53.046L37.3052 44.3672C37.0731 45.1621 36.5902 45.9794 36.139 46.6806C34.3756 49.416 31.7012 51.7544 28.7123 53.046Z" fill="#E3AE67"/>
<path d="M20.3858 55.3421C21.3977 55.3421 22.218 54.5218 22.218 53.5099C22.218 52.498 21.3977 51.6777 20.3858 51.6777C19.3739 51.6777 18.5536 52.498 18.5536 53.5099C18.5536 54.5218 19.3739 55.3421 20.3858 55.3421Z" fill="white"/>
</svg>
