<?xml version="1.0" encoding="UTF-8"?>
<svg id="Layer_1" xmlns="http://www.w3.org/2000/svg" version="1.1" viewBox="0 0 2228 47">
  <!-- Generator: Adobe Illustrator 29.6.1, SVG Export Plug-In . SVG Version: 2.1.1 Build 9)  -->
  <defs>
    <style>
      .st0 {
        fill: none;
        stroke: #e3ae67;
        stroke-miterlimit: 10;
        stroke-width: 6.2px;
      }

      .st1 {
        fill: #0a125a;
      }

      .st2 {
        fill: #e3ae67;
      }
    </style>
  </defs>
  <path class="st2" d="M1150,.5c0,19.7-16,35.7-35.8,35.7s-35.8-16-35.8-35.7"/>
  <path class="st0" d="M1150,.5c0,19.7-16,35.7-35.8,35.7s-35.8-16-35.8-35.7"/>
  <path class="st2" d="M1221.6.5c0,19.7-16,35.7-35.8,35.7s-35.8-16-35.8-35.7"/>
  <path class="st0" d="M1221.6.5c0,19.7-16,35.7-35.8,35.7s-35.8-16-35.8-35.7"/>
  <path class="st2" d="M1293.2.5c0,19.7-16,35.7-35.8,35.7s-35.8-16-35.8-35.7"/>
  <path class="st0" d="M1293.2.5c0,19.7-16,35.7-35.8,35.7s-35.8-16-35.8-35.7"/>
  <path class="st2" d="M1364.7.5c0,19.7-16,35.7-35.8,35.7s-35.8-16-35.8-35.7"/>
  <path class="st0" d="M1364.7.5c0,19.7-16,35.7-35.8,35.7s-35.8-16-35.8-35.7"/>
  <path class="st2" d="M1436.3.5c0,19.7-16,35.7-35.8,35.7s-35.8-16-35.8-35.7"/>
  <path class="st0" d="M1436.3.5c0,19.7-16,35.7-35.8,35.7s-35.8-16-35.8-35.7"/>
  <path class="st2" d="M1507.9.5c0,19.7-16,35.7-35.8,35.7s-35.8-16-35.8-35.7"/>
  <path class="st0" d="M1507.9.5c0,19.7-16,35.7-35.8,35.7s-35.8-16-35.8-35.7"/>
  <path class="st2" d="M1579.5.5c0,19.7-16,35.7-35.8,35.7s-35.8-16-35.8-35.7"/>
  <path class="st0" d="M1579.5.5c0,19.7-16,35.7-35.8,35.7s-35.8-16-35.8-35.7"/>
  <path class="st2" d="M1651.1.5c0,19.7-16,35.7-35.8,35.7s-35.8-16-35.8-35.7"/>
  <path class="st0" d="M1651.1.5c0,19.7-16,35.7-35.8,35.7s-35.8-16-35.8-35.7"/>
  <path class="st2" d="M1722.7.5c0,19.7-16,35.7-35.8,35.7s-35.8-16-35.8-35.7"/>
  <path class="st0" d="M1722.7.5c0,19.7-16,35.7-35.8,35.7s-35.8-16-35.8-35.7"/>
  <path class="st2" d="M1794.3.5c0,19.7-16,35.7-35.8,35.7s-35.8-16-35.8-35.7"/>
  <path class="st0" d="M1794.3.5c0,19.7-16,35.7-35.8,35.7s-35.8-16-35.8-35.7"/>
  <path class="st2" d="M1865.9.5c0,19.7-16,35.7-35.8,35.7s-35.8-16-35.8-35.7"/>
  <path class="st0" d="M1865.9.5c0,19.7-16,35.7-35.8,35.7s-35.8-16-35.8-35.7"/>
  <path class="st2" d="M1937.5.5c0,19.7-16,35.7-35.8,35.7s-35.8-16-35.8-35.7"/>
  <path class="st0" d="M1937.5.5c0,19.7-16,35.7-35.8,35.7s-35.8-16-35.8-35.7"/>
  <path class="st2" d="M2009.1.5c0,19.7-16,35.7-35.8,35.7s-35.8-16-35.8-35.7"/>
  <path class="st0" d="M2009.1.5c0,19.7-16,35.7-35.8,35.7s-35.8-16-35.8-35.7"/>
  <path class="st2" d="M2080.6.5c0,19.7-16,35.7-35.8,35.7s-35.8-16-35.8-35.7"/>
  <path class="st0" d="M2080.6.5c0,19.7-16,35.7-35.8,35.7s-35.8-16-35.8-35.7"/>
  <path class="st2" d="M2152.2.5c0,19.7-16,35.7-35.8,35.7s-35.8-16-35.8-35.7"/>
  <path class="st0" d="M2152.2.5c0,19.7-16,35.7-35.8,35.7s-35.8-16-35.8-35.7"/>
  <path class="st2" d="M2223.8.5c0,19.7-16,35.7-35.8,35.7s-35.8-16-35.8-35.7"/>
  <path class="st0" d="M2223.8.5c0,19.7-16,35.7-35.8,35.7s-35.8-16-35.8-35.7"/>
  <path class="st1" d="M1150.6-.2c0,19.7-16,35.7-35.8,35.7s-35.8-16-35.8-35.7"/>
  <path class="st1" d="M1222.2-.2c0,19.7-16,35.7-35.8,35.7s-35.8-16-35.8-35.7"/>
  <path class="st1" d="M1293.8-.2c0,19.7-16,35.7-35.8,35.7s-35.8-16-35.8-35.7"/>
  <path class="st1" d="M1365.4-.2c0,19.7-16,35.7-35.8,35.7s-35.8-16-35.8-35.7"/>
  <path class="st1" d="M1437-.2c0,19.7-16,35.7-35.8,35.7s-35.8-16-35.8-35.7"/>
  <path class="st1" d="M1508.6-.2c0,19.7-16,35.7-35.8,35.7s-35.8-16-35.8-35.7"/>
  <path class="st1" d="M1580.1-.2c0,19.7-16,35.7-35.8,35.7s-35.8-16-35.8-35.7"/>
  <path class="st1" d="M1651.7-.2c0,19.7-16,35.7-35.8,35.7s-35.8-16-35.8-35.7"/>
  <path class="st1" d="M1723.3-.2c0,19.7-16,35.7-35.8,35.7s-35.8-16-35.8-35.7"/>
  <path class="st1" d="M1794.9-.2c0,19.7-16,35.7-35.8,35.7s-35.8-16-35.8-35.7"/>
  <path class="st1" d="M1866.5-.2c0,19.7-16,35.7-35.8,35.7s-35.8-16-35.8-35.7"/>
  <path class="st1" d="M1938.1-.2c0,19.7-16,35.7-35.8,35.7s-35.8-16-35.8-35.7"/>
  <path class="st1" d="M2009.7-.2c0,19.7-16,35.7-35.8,35.7s-35.8-16-35.8-35.7"/>
  <path class="st1" d="M2081.3-.2c0,19.7-16,35.7-35.8,35.7s-35.8-16-35.8-35.7"/>
  <path class="st1" d="M2152.9-.2c0,19.7-16,35.7-35.8,35.7s-35.8-16-35.8-35.7"/>
  <path class="st1" d="M2224.4-.2c0,19.7-16,35.7-35.8,35.7s-35.8-16-35.8-35.7"/>
  <path class="st2" d="M74.9.5c0,19.7-16,35.7-35.8,35.7S3.3,20.2,3.3.5"/>
  <path class="st0" d="M74.9.5c0,19.7-16,35.7-35.8,35.7S3.3,20.2,3.3.5"/>
  <path class="st2" d="M146.4.5c0,19.7-16,35.7-35.8,35.7S74.9,20.2,74.9.5"/>
  <path class="st0" d="M146.4.5c0,19.7-16,35.7-35.8,35.7S74.9,20.2,74.9.5"/>
  <path class="st2" d="M218,.5c0,19.7-16,35.7-35.8,35.7S146.4,20.2,146.4.5"/>
  <path class="st0" d="M218,.5c0,19.7-16,35.7-35.8,35.7S146.4,20.2,146.4.5"/>
  <path class="st2" d="M289.6.5c0,19.7-16,35.7-35.8,35.7S218,20.2,218,.5"/>
  <path class="st0" d="M289.6.5c0,19.7-16,35.7-35.8,35.7S218,20.2,218,.5"/>
  <path class="st2" d="M361.2.5c0,19.7-16,35.7-35.8,35.7s-35.8-16-35.8-35.7"/>
  <path class="st0" d="M361.2.5c0,19.7-16,35.7-35.8,35.7s-35.8-16-35.8-35.7"/>
  <path class="st2" d="M432.8.5c0,19.7-16,35.7-35.8,35.7s-35.8-16-35.8-35.7"/>
  <path class="st0" d="M432.8.5c0,19.7-16,35.7-35.8,35.7s-35.8-16-35.8-35.7"/>
  <path class="st2" d="M504.4.5c0,19.7-16,35.7-35.8,35.7s-35.8-16-35.8-35.7"/>
  <path class="st0" d="M504.4.5c0,19.7-16,35.7-35.8,35.7s-35.8-16-35.8-35.7"/>
  <path class="st2" d="M576,.5c0,19.7-16,35.7-35.8,35.7s-35.8-16-35.8-35.7"/>
  <path class="st0" d="M576,.5c0,19.7-16,35.7-35.8,35.7s-35.8-16-35.8-35.7"/>
  <path class="st2" d="M647.6.5c0,19.7-16,35.7-35.8,35.7s-35.8-16-35.8-35.7"/>
  <path class="st0" d="M647.6.5c0,19.7-16,35.7-35.8,35.7s-35.8-16-35.8-35.7"/>
  <path class="st2" d="M719.2.5c0,19.7-16,35.7-35.8,35.7s-35.8-16-35.8-35.7"/>
  <path class="st0" d="M719.2.5c0,19.7-16,35.7-35.8,35.7s-35.8-16-35.8-35.7"/>
  <path class="st2" d="M790.8.5c0,19.7-16,35.7-35.8,35.7s-35.8-16-35.8-35.7"/>
  <path class="st0" d="M790.8.5c0,19.7-16,35.7-35.8,35.7s-35.8-16-35.8-35.7"/>
  <path class="st2" d="M862.3.5c0,19.7-16,35.7-35.8,35.7s-35.8-16-35.8-35.7"/>
  <path class="st0" d="M862.3.5c0,19.7-16,35.7-35.8,35.7s-35.8-16-35.8-35.7"/>
  <path class="st2" d="M933.9.5c0,19.7-16,35.7-35.8,35.7s-35.8-16-35.8-35.7"/>
  <path class="st0" d="M933.9.5c0,19.7-16,35.7-35.8,35.7s-35.8-16-35.8-35.7"/>
  <path class="st2" d="M1005.5.5c0,19.7-16,35.7-35.8,35.7s-35.8-16-35.8-35.7"/>
  <path class="st0" d="M1005.5.5c0,19.7-16,35.7-35.8,35.7s-35.8-16-35.8-35.7"/>
  <path class="st2" d="M1077.1.5c0,19.7-16,35.7-35.8,35.7s-35.8-16-35.8-35.7"/>
  <path class="st0" d="M1077.1.5c0,19.7-16,35.7-35.8,35.7s-35.8-16-35.8-35.7"/>
  <path class="st2" d="M1148.7.5c0,19.7-16,35.7-35.8,35.7s-35.8-16-35.8-35.7"/>
  <path class="st0" d="M1148.7.5c0,19.7-16,35.7-35.8,35.7s-35.8-16-35.8-35.7"/>
  <path class="st1" d="M75.5-.2c0,19.7-16,35.7-35.8,35.7S3.9,19.5,3.9-.2"/>
  <path class="st1" d="M147.1-.2c0,19.7-16,35.7-35.8,35.7S75.5,19.5,75.5-.2"/>
  <path class="st1" d="M218.7-.2c0,19.7-16,35.7-35.8,35.7S147.1,19.5,147.1-.2"/>
  <path class="st1" d="M290.3-.2c0,19.7-16,35.7-35.8,35.7S218.7,19.5,218.7-.2"/>
  <path class="st1" d="M361.8-.2c0,19.7-16,35.7-35.8,35.7S290.3,19.5,290.3-.2"/>
  <path class="st1" d="M433.4-.2c0,19.7-16,35.7-35.8,35.7S361.8,19.5,361.8-.2"/>
  <path class="st1" d="M505-.2c0,19.7-16,35.7-35.8,35.7S433.4,19.5,433.4-.2"/>
  <path class="st1" d="M576.6-.2c0,19.7-16,35.7-35.8,35.7S505,19.5,505-.2"/>
  <path class="st1" d="M648.2-.2c0,19.7-16,35.7-35.8,35.7s-35.8-16-35.8-35.7"/>
  <path class="st1" d="M719.8-.2c0,19.7-16,35.7-35.8,35.7s-35.8-16-35.8-35.7"/>
  <path class="st1" d="M791.4-.2c0,19.7-16,35.7-35.8,35.7s-35.8-16-35.8-35.7"/>
  <path class="st1" d="M863-.2c0,19.7-16,35.7-35.8,35.7s-35.8-16-35.8-35.7"/>
  <path class="st1" d="M934.6-.2c0,19.7-16,35.7-35.8,35.7s-35.8-16-35.8-35.7"/>
  <path class="st1" d="M1006.2-.2c0,19.7-16,35.7-35.8,35.7s-35.8-16-35.8-35.7"/>
  <path class="st1" d="M1077.8-.2c0,19.7-16,35.7-35.8,35.7s-35.8-16-35.8-35.7"/>
  <path class="st1" d="M1149.3-.2c0,19.7-16,35.7-35.8,35.7s-35.8-16-35.8-35.7"/>
</svg>