<svg width="57" height="63" viewBox="0 0 57 63" fill="none" xmlns="http://www.w3.org/2000/svg">
<g clip-path="url(#clip0_462_18493)">
<path d="M32.9001 9.31287C34.7589 9.38953 35.2944 10.4223 35.7633 11.9744C36.1233 13.1664 36.4438 15.5816 36.9109 16.5334C37.1216 16.9623 38.1383 17.871 38.5079 18.3258C39.3587 19.3732 40.1542 20.4894 40.8083 21.6677C40.9874 21.9907 41.6679 23.1906 41.7223 23.4481C41.7768 23.7056 41.2798 24.2371 41.1297 24.511C40.6819 25.3241 40.2271 26.2112 40.1779 27.1527L39.2542 24.3999C35.5464 15.7349 25.7813 11.25 16.5236 13.8099C8.05612 16.1518 2.22002 24.4128 3.04008 33.0528C3.87945 41.8917 11.2055 49.2801 20.3359 49.8064C20.328 50.6927 20.2718 51.5472 20.5984 52.3904C17.9591 52.3223 15.3883 51.629 12.9607 50.6686L14.1986 59.6169L29.2336 59.5437L29.6594 57.4033L31.1933 56.7117L32.5393 55.8366L31.7245 60.7642C31.4286 61.6652 30.62 62.1337 29.6884 62.2121C24.5626 61.9322 19.0452 62.573 13.9651 62.2121C12.8404 62.132 11.994 61.5799 11.6832 60.4886L10.6673 53.4317C9.9289 53.4765 9.18172 53.1975 8.65404 52.6936C7.43273 51.5273 7.31157 47.9287 6.61356 46.3404C6.43357 45.9313 5.38435 44.9193 5.02173 44.4567C-1.01279 36.7418 -1.09181 26.2974 4.93393 18.5489C5.31499 18.0588 6.35279 17.0562 6.5679 16.6204C7.12104 15.4989 7.37742 13.0097 7.82257 11.6497C8.30108 10.188 9.11411 9.3525 10.763 9.32321C10.7771 9.13889 10.7419 8.94853 10.7648 8.76507C11.0071 6.81417 11.2178 4.08032 11.6638 2.23966C11.9141 1.20693 12.7982 0.512701 13.8773 0.448963C18.9829 0.750428 24.5486 0.0587823 29.5997 0.448963C30.6867 0.532512 31.5313 1.11477 31.7956 2.17075L32.8984 9.31374L32.9001 9.31287ZM29.2863 2.9537L14.1934 3.03983L12.9598 12.1647C14.0204 11.8547 15.0424 11.4412 16.1197 11.1742C20.0804 10.1949 24.1192 10.2224 28.0404 11.3671C28.885 11.6135 29.6928 11.958 30.519 12.2509L29.2863 2.9537Z" fill="#E3AE67"/>
<path d="M26.6813 55.8974C26.4995 55.7217 26.4003 55.2635 26.618 55.0636C27.8165 53.5589 31.2732 51.7699 29.2933 49.5882C26.561 46.5778 25.0534 50.3496 23.1376 51.6493C21.4536 52.7915 21.9093 49.6149 22.2245 48.7725C22.6381 47.67 23.9349 46.2609 24.9876 45.7122C26.3977 44.9775 28.1229 45.3789 29.3328 44.204C32.844 40.3909 37.061 36.9525 40.487 33.0964C42.2895 31.0679 41.4906 30.4254 41.6723 28.0576C41.955 24.3677 45.4179 21.6717 49.0888 21.633C49.9642 21.6235 51.3067 22.0438 50.6842 23.1179C50.1986 23.956 48.411 25.3634 47.684 26.2032C47.0159 26.9749 46.792 27.4736 47.1862 28.5029C47.3697 28.9818 48.9641 30.4969 49.4383 30.6864C50.0976 30.9508 50.8554 30.9146 51.419 30.4693L54.8845 26.8922C56.587 26.136 56.5053 28.8483 56.4202 29.8629C56.1813 32.7062 53.7695 35.4331 50.9783 36.1523C48.8412 36.7036 46.6506 35.5778 45.1852 37.8767C41.9208 41.4831 37.6203 44.7398 34.4736 48.3849C33.3831 49.6476 33.542 50.1265 33.2022 51.6166C32.6815 53.8983 31.1968 55.2368 28.9395 55.8759C28.3416 56.0447 27.1791 56.3763 26.6813 55.8948V55.8974Z" fill="#E3AE67"/>
<path d="M6.8138 32.3204C6.86999 34.3677 7.4925 36.3496 8.39596 38.1774C8.49606 38.2532 10.1599 36.9672 10.5681 36.9C11.1151 36.8096 11.7043 37.3583 11.7262 37.8828C11.7587 38.6795 10.1722 39.242 9.59268 39.6537C9.51279 39.7105 9.44606 39.7192 9.45835 39.8423C9.49698 40.2291 11.4163 42.1817 11.8184 42.5279C12.3022 42.9448 12.8641 43.2807 13.3567 43.689C13.8273 43.1309 14.4094 41.3557 15.1329 41.211C15.7703 41.0835 16.4086 41.6089 16.3384 42.2377C16.2927 42.6477 14.9599 44.4952 15.0679 44.6356C16.8801 45.4668 18.8469 46.0318 20.8627 46.0999C20.6626 45.192 20.8935 44.211 20.9295 43.2807C21.4615 42.4134 22.6451 42.6253 22.7873 43.6537C22.8251 43.9293 22.8444 45.13 22.7768 45.3514C22.7452 45.4547 21.7056 46.4711 21.494 46.7631C21.1981 47.1705 20.9426 47.5994 20.7618 48.068C13.2346 47.9474 6.72249 42.2575 5.11925 35.1464C2.37198 22.9552 13.3462 12.4702 25.7093 15.2058C33.7132 16.9776 39.638 24.3531 38.8171 32.49L36.493 34.7312L36.8064 32.4952L36.7116 32.3195H34.2532C33.9617 32.3195 33.6395 31.6993 33.6395 31.4151C33.6395 31.1309 33.9617 30.5107 34.2532 30.5107H36.8433C36.5817 25.9707 34.1101 21.9328 30.39 19.3152C30.2556 19.3161 29.274 21.2937 28.9896 21.5572C28.3038 22.1929 27.2248 21.5813 27.3635 20.6546C27.4197 20.2782 28.7393 18.5228 28.641 18.3634C26.8121 17.4392 24.7655 16.9155 22.7074 16.8148V19.5279C22.7074 19.5831 22.4713 19.9259 22.3887 19.9905C21.8602 20.4005 20.7758 20.0654 20.7758 19.4418V16.8148C18.7547 16.9052 16.8178 17.4918 14.981 18.2799C15.2014 18.8768 16.1891 20.0267 16.2936 20.565C16.4885 21.5676 15.3603 22.2497 14.6676 21.5572C14.3778 21.267 13.4858 19.3074 13.3541 19.31C11.67 20.3333 10.2775 21.7855 9.18792 23.4039C9.90086 24.0878 12.0256 24.4358 11.6902 25.6882C11.21 27.4806 8.4504 24.9603 8.21861 25.1214C7.4126 26.7993 6.91038 28.6485 6.81556 30.509H9.49347C9.8157 30.509 10.0826 31.1085 10.0721 31.4142C10.0624 31.689 9.75599 32.3178 9.49347 32.3178H6.81556L6.8138 32.3204Z" fill="#E3AE67"/>
<path d="M31.6385 23.0389C32.6781 22.8752 33.2224 23.9019 32.6289 24.7003L24.4599 31.0707C24.7708 34.5057 19.422 34.8606 19.1981 31.4893C19.1814 31.2378 19.3781 31.013 19.1998 30.808L13.9213 26.5961C12.9844 25.6366 14.2303 24.3283 15.3032 25.0681L20.4238 29.181C21.4414 28.8821 22.2957 28.7322 23.2623 29.2972L31.1389 23.2404C31.2829 23.1517 31.4699 23.0655 31.6368 23.0397L31.6385 23.0389ZM21.6301 30.6168C20.5326 30.7942 20.8996 32.3119 21.9383 32.2171C23.1772 32.1043 22.7733 30.4325 21.6301 30.6168Z" fill="#E3AE67"/>
<path d="M36.7537 48.5137C36.0847 50.0908 36.2577 52.3044 34.4718 53.164C34.9011 52.0847 34.7413 50.6368 35.4797 49.7178L36.7537 48.5137Z" fill="#E3AE67"/>
<path d="M21.6301 30.6159C22.7733 30.4307 23.1772 32.1025 21.9383 32.2162C20.8996 32.311 20.5326 30.7942 21.6301 30.6159Z" fill="white"/>
</g>
<defs>
<clipPath id="clip0_462_18493">
<rect width="56" height="62" fill="white" transform="translate(0.456177 0.324219)"/>
</clipPath>
</defs>
</svg>
